<svg xmlns="http://www.w3.org/2000/svg" width="980" height="420" viewBox="0 0 980 420">
<rect width="100%" height="100%" fill="white"/>
<text x="490.0" y="24" text-anchor="middle" font-family="Arial" font-size="18">Replication gap vs paper best gap</text>
<line x1="90" y1="195.0" x2="950" y2="195.0" stroke="#444"/>
<text x="18" y="199.0" font-family="Arial" font-size="12">0%</text>
<rect x="145.66666666666669" y="195.0" width="28.0" height="0.0" fill="#4c78a8"/>
<rect x="177.66666666666669" y="141.10493336347764" width="28.0" height="53.89506663652235" fill="#f58518"/>
<text x="161.66666666666669" y="375" text-anchor="middle" font-family="Arial" font-size="11" transform="rotate(35 161.66666666666669,375)">VC01_V6a</text>
<rect x="289.0" y="195.0" width="28.0" height="0.0" fill="#4c78a8"/>
<rect x="321.0" y="50.0" width="28.0" height="145.0" fill="#f58518"/>
<text x="305.0" y="375" text-anchor="middle" font-family="Arial" font-size="11" transform="rotate(35 305.0,375)">VC02_V6a</text>
<rect x="432.33333333333337" y="195.0" width="28.0" height="2.855277653877686" fill="#4c78a8"/>
<rect x="464.33333333333337" y="56.32429947188794" width="28.0" height="138.67570052811206" fill="#f58518"/>
<text x="448.33333333333337" y="375" text-anchor="middle" font-family="Arial" font-size="11" transform="rotate(35 448.33333333333337,375)">VC03_V7a</text>
<rect x="575.6666666666667" y="195.0" width="28.0" height="0.0" fill="#4c78a8"/>
<rect x="607.6666666666667" y="81.67904788949474" width="28.0" height="113.32095211050526" fill="#f58518"/>
<text x="591.6666666666667" y="375" text-anchor="middle" font-family="Arial" font-size="11" transform="rotate(35 591.6666666666667,375)">VC03_V8a</text>
<rect x="719.0" y="193.68217954436415" width="28.0" height="1.3178204556358548" fill="#4c78a8"/>
<rect x="751.0" y="182.18409214786698" width="28.0" height="12.815907852133021" fill="#f58518"/>
<text x="735.0" y="375" text-anchor="middle" font-family="Arial" font-size="11" transform="rotate(35 735.0,375)">VC04_V8a</text>
<rect x="862.3333333333334" y="195.0" width="28.0" height="3.6240062529986012" fill="#4c78a8"/>
<rect x="894.3333333333334" y="179.5480721353781" width="28.0" height="15.451927864621908" fill="#f58518"/>
<text x="878.3333333333334" y="375" text-anchor="middle" font-family="Arial" font-size="11" transform="rotate(35 878.3333333333334,375)">VC05_V8a</text>
<rect x="760" y="42" width="14" height="14" fill="#4c78a8"/><text x="780" y="54" font-family="Arial" font-size="12">Paper best gap</text>
<rect x="760" y="62" width="14" height="14" fill="#f58518"/><text x="780" y="74" font-family="Arial" font-size="12">Replication gap</text>
</svg>
