<svg xmlns="http://www.w3.org/2000/svg" width="980" height="420" viewBox="0 0 980 420">
<rect width="100%" height="100%" fill="white"/>
<text x="490.0" y="24" text-anchor="middle" font-family="Arial" font-size="18">Replication gap vs paper best gap</text>
<line x1="90" y1="195.0" x2="950" y2="195.0" stroke="#444"/>
<text x="18" y="199.0" font-family="Arial" font-size="12">0%</text>
<rect x="217.33333333333334" y="195.0" width="28.0" height="0.0" fill="#4c78a8"/>
<rect x="249.33333333333334" y="194.99508288176443" width="28.0" height="0.0049171182355642416" fill="#f58518"/>
<text x="233.33333333333334" y="375" text-anchor="middle" font-family="Arial" font-size="11" transform="rotate(35 233.33333333333334,375)">VC01_V6a</text>
<rect x="504.0" y="195.0" width="28.0" height="0.0" fill="#4c78a8"/>
<rect x="536.0" y="50.0" width="28.0" height="145.0" fill="#f58518"/>
<text x="520.0" y="375" text-anchor="middle" font-family="Arial" font-size="11" transform="rotate(35 520.0,375)">VC03_V7a</text>
<rect x="790.6666666666667" y="195.0" width="28.0" height="10.689928989775563" fill="#4c78a8"/>
<rect x="822.6666666666667" y="195.0" width="28.0" height="11.001517673867323" fill="#f58518"/>
<text x="806.6666666666667" y="375" text-anchor="middle" font-family="Arial" font-size="11" transform="rotate(35 806.6666666666667,375)">VC05_V8a</text>
<rect x="760" y="42" width="14" height="14" fill="#4c78a8"/><text x="780" y="54" font-family="Arial" font-size="12">Paper best gap</text>
<rect x="760" y="62" width="14" height="14" fill="#f58518"/><text x="780" y="74" font-family="Arial" font-size="12">Replication gap</text>
</svg>
