<svg xmlns="http://www.w3.org/2000/svg" width="980" height="420" viewBox="0 0 980 420">
<rect width="100%" height="100%" fill="white"/>
<text x="490.0" y="24" text-anchor="middle" font-family="Arial" font-size="18">Replication gap vs paper best gap</text>
<line x1="90" y1="195.0" x2="950" y2="195.0" stroke="#444"/>
<text x="18" y="199.0" font-family="Arial" font-size="12">0%</text>
<rect x="181.5" y="195.0" width="28.0" height="0.0" fill="#4c78a8"/>
<rect x="213.5" y="195.0" width="28.0" height="0.005622840437868745" fill="#f58518"/>
<text x="197.5" y="375" text-anchor="middle" font-family="Arial" font-size="11" transform="rotate(35 197.5,375)">VC01_V6a</text>
<rect x="396.5" y="195.0" width="28.0" height="0.0" fill="#4c78a8"/>
<rect x="428.5" y="50.0" width="28.0" height="145.0" fill="#f58518"/>
<text x="412.5" y="375" text-anchor="middle" font-family="Arial" font-size="11" transform="rotate(35 412.5,375)">VC02_V6a</text>
<rect x="611.5" y="195.0" width="28.0" height="9.207652606248654" fill="#4c78a8"/>
<rect x="643.5" y="184.41198017743477" width="28.0" height="10.588019822565236" fill="#f58518"/>
<text x="627.5" y="375" text-anchor="middle" font-family="Arial" font-size="11" transform="rotate(35 627.5,375)">VC03_V7a</text>
<rect x="826.5" y="195.0" width="28.0" height="0.0" fill="#4c78a8"/>
<rect x="858.5" y="190.81930552070654" width="28.0" height="4.180694479293459" fill="#f58518"/>
<text x="842.5" y="375" text-anchor="middle" font-family="Arial" font-size="11" transform="rotate(35 842.5,375)">VC03_V8a</text>
<rect x="760" y="42" width="14" height="14" fill="#4c78a8"/><text x="780" y="54" font-family="Arial" font-size="12">Paper best gap</text>
<rect x="760" y="62" width="14" height="14" fill="#f58518"/><text x="780" y="74" font-family="Arial" font-size="12">Replication gap</text>
</svg>
